HIERARCHY
ROOT Hips
{
	OFFSET 0.000000 0.000000 0.000000 
	CHANNELS 6 Xposition Yposition Zposition Zrotation Yrotation Xrotation
	JOINT LeftUpLeg
	{
		OFFSET 1.363060 -1.794630 0.839290 
		CHANNELS 3 Zrotation Yrotation Xrotation
		JOINT LeftLeg
		{
			OFFSET 2.448110 -6.726130 0.000000 
			CHANNELS 3 Zrotation Yrotation Xrotation
			JOINT LeftFoot
			{
				OFFSET 2.562200 -7.039590 0.000000 
				CHANNELS 3 Zrotation Yrotation Xrotation
				JOINT LeftToeBase
				{
					OFFSET 0.157640 -0.433110 2.322550 
					CHANNELS 3 Zrotation Yrotation Xrotation
					End Site
					{
						OFFSET 0.000000 0.000000 0.000000 
					}
				}
			}
		}
	}
	JOINT RightUpLeg
	{
		OFFSET -1.305520 -1.794630 0.839290 
		CHANNELS 3 Zrotation Yrotation Xrotation
		JOINT RightLeg
		{
			OFFSET -2.542530 -6.985550 0.000000 
			CHANNELS 3 Zrotation Yrotation Xrotation
			JOINT RightFoot
			{
				OFFSET -2.568260 -7.056230 0.000000 
				CHANNELS 3 Zrotation Yrotation Xrotation
				JOINT RightToeBase
				{
					OFFSET -0.164730 -0.452590 2.363150 
					CHANNELS 3 Zrotation Yrotation Xrotation
					End Site
					{
						OFFSET 0.000000 0.000000 0.000000 
					}
				}
			}
		}
	}
	JOINT Spine
	{
		OFFSET 0.028270 2.035590 -0.193380 
		CHANNELS 3 Zrotation Yrotation Xrotation
		JOINT Spine1
		{
			OFFSET 0.056720 2.048850 -0.042750 
			CHANNELS 3 Zrotation Yrotation Xrotation
			JOINT Neck1
			{
				OFFSET -0.054170 1.746240 0.172020 
				CHANNELS 3 Zrotation Yrotation Xrotation
				JOINT Head
				{
					OFFSET 0.104070 1.761360 -0.123970 
					CHANNELS 3 Zrotation Yrotation Xrotation
					End Site
					{
						OFFSET 0.000000 0.000000 0.000000 
					}
				}
			}
			JOINT LeftArm
			{
				OFFSET 3.362410 1.200890 -0.311210 
				CHANNELS 3 Zrotation Yrotation Xrotation
				JOINT LeftForeArm
				{
					OFFSET 4.983000 -0.000000 -0.000000 
					CHANNELS 3 Zrotation Yrotation Xrotation
					JOINT LeftHand
					{
						OFFSET 3.483560 -0.000000 -0.000000 
						CHANNELS 3 Zrotation Yrotation Xrotation
						JOINT LeftHandIndex1
						{
							OFFSET 0.715260 -0.000000 -0.000000 
							CHANNELS 3 Zrotation Yrotation Xrotation
							End Site
							{
								OFFSET 0.000000 0.000000 0.000000 
							}
						}
					}
				}
			}
			JOINT RightArm
			{
				OFFSET -3.136600 1.374050 -0.404650 
				CHANNELS 3 Zrotation Yrotation Xrotation
				JOINT RightForeArm
				{
					OFFSET -5.241900 -0.000000 -0.000000 
					CHANNELS 3 Zrotation Yrotation Xrotation
					JOINT RightHand
					{
						OFFSET -3.444170 -0.000000 -0.000000 
						CHANNELS 3 Zrotation Yrotation Xrotation
						JOINT RightHandIndex1
						{
							OFFSET -0.622530 -0.000000 -0.000000 
							CHANNELS 3 Zrotation Yrotation Xrotation
							End Site
							{
								OFFSET 0.000000 0.000000 0.000000 
							}
						}
					}
				}
			}
		}
	}
}
MOTION
Frames: 13
Frame Time: 0.041667
-0.246070 17.267109 -0.705294 178.607976 -5.659195 -159.445122 -31.514923 -9.125474 -33.872436 1.954525 13.808449 36.552730 -1.436914 11.567290 -22.722168 0.012000 0.705900 1.939900 29.764698 -11.856171 -25.667343 -10.325207 -17.474827 53.865360 0.705572 -33.836516 38.048922 -0.965900 -6.257600 17.533600 1.169179 0.471987 -5.718999 0.393464 0.076203 3.105722 5.749220 -4.712588 20.054633 -0.059300 -2.925600 16.168500 -87.137417 19.318559 -0.922549 21.308198 -28.494546 -4.960445 2.113038 2.671997 7.920869 -7.125000 0.000000 0.000000 77.452174 -13.268582 -1.442614 -9.204650 11.730058 -2.233048 -3.713986 1.142510 10.183107 7.125000 0.000000 0.000000 
-0.247446 17.268379 -0.705400 179.122920 -5.641776 -159.512637 -30.923125 -9.017096 -33.933527 1.958789 13.811638 36.562321 -1.400258 11.466783 -22.766683 0.016400 0.826400 2.271200 30.303050 -11.714088 -25.548065 -10.313129 -17.478221 53.811130 0.898244 -34.362945 37.742010 -1.132000 -6.757500 18.999000 1.225505 0.483073 -5.720645 0.374942 0.088577 3.071937 5.763440 -4.547768 20.002562 -0.023100 -2.868300 16.107400 -87.404291 19.384218 -0.534644 21.144559 -28.330874 -4.896121 2.068067 2.719501 8.539627 -7.125000 0.000000 0.000000 77.677517 -13.166993 -2.538672 -9.101304 11.579925 -2.183708 -3.679967 1.095250 10.653353 7.125000 0.000000 0.000000 
-0.248398 17.269014 -0.710162 179.198269 -5.557580 -159.585499 -30.862073 -8.947708 -33.892980 1.954156 13.800520 36.546000 -1.541433 11.893917 -22.782762 0.006400 0.516300 1.418600 30.340856 -11.789331 -25.465452 -10.325764 -17.475038 53.820672 0.971302 -34.587151 37.640216 -1.183500 -6.904100 19.431600 1.236805 0.504306 -5.727444 0.411579 0.100436 2.990454 5.731118 -4.421310 19.985761 -0.051600 -2.815000 16.065000 -87.677077 19.299364 -0.610842 20.648011 -27.789057 -4.701954 2.122834 2.707880 9.767088 -7.125000 0.000000 0.000000 77.957885 -13.196208 -3.263431 -9.046160 11.472511 -2.148591 -3.668791 1.005275 10.688336 7.125000 0.000000 0.000000 
-0.244906 17.269120 -0.706141 179.201688 -5.310865 -159.514457 -30.863889 -9.003516 -34.000797 1.946451 13.805723 36.545452 -1.621131 12.223491 -23.013903 0.004100 0.411900 1.131700 30.327058 -11.596114 -25.557349 -10.330401 -17.493062 53.865319 0.876776 -34.398007 37.814958 -1.081000 -6.608600 18.560800 1.228151 0.612086 -5.731166 0.514881 0.151613 2.963340 5.782779 -4.334356 19.938307 -0.013200 -2.763900 16.079100 -87.821176 19.001203 -0.562813 19.963220 -27.032007 -4.435881 2.240558 2.627366 10.965647 -7.125000 0.000000 0.000000 78.256657 -13.178378 -3.541951 -9.187308 11.580315 -2.114367 -3.638517 0.850680 10.204978 7.125000 0.000000 0.000000 
-0.242789 17.270813 -0.704024 179.069199 -4.959803 -159.389183 -31.027115 -9.040413 -34.090101 1.920510 13.787323 36.467585 -1.632660 12.319135 -23.171223 0.013600 0.752200 2.067100 30.102803 -11.257358 -25.716101 -10.345190 -17.527019 53.952217 0.631047 -34.011420 38.321741 -0.933500 -6.154600 17.233500 1.215982 0.722681 -5.705490 0.683055 0.209039 3.119440 5.812231 -4.216191 19.880400 0.022200 -2.700000 16.129400 -88.056961 18.836414 -0.277217 19.748758 -26.812039 -4.347028 2.316604 2.538601 11.569381 -7.125000 0.000000 0.000000 78.375295 -12.801253 -4.494909 -9.008314 11.337169 -2.056997 -3.606471 0.805631 10.204118 7.125000 0.000000 0.000000 
-0.243847 17.277587 -0.704765 178.979102 -4.765745 -159.336557 -31.160025 -8.976442 -34.077587 1.898501 13.753985 36.363595 -1.639073 12.253058 -22.963189 0.045400 1.375500 3.782500 29.895604 -11.052477 -25.865223 -10.374871 -17.555363 54.025961 0.592415 -34.131973 38.478839 -0.937200 -6.166500 17.268300 1.208209 0.777793 -5.704974 0.741122 0.237748 3.134759 5.794815 -4.069700 19.872934 -0.006400 -2.620300 16.176300 -88.304117 18.933019 -0.023480 19.781408 -26.863514 -4.357037 2.262754 2.571744 12.038754 -7.125000 0.000000 0.000000 78.524521 -12.414429 -6.457277 -8.629637 10.875247 -2.005101 -3.586366 0.874549 11.105713 7.125000 0.000000 0.000000 
-0.245117 17.283725 -0.705717 178.956633 -4.749965 -159.314980 -31.204137 -8.901406 -34.043941 1.880883 13.722812 36.271435 -1.648047 12.183630 -22.726385 0.060900 1.592500 4.380700 29.826229 -11.120572 -26.004539 -10.400309 -17.567299 54.075600 0.658515 -34.347157 38.388496 -1.050000 -6.516000 18.289100 1.208603 0.776233 -5.724279 0.755988 0.234658 3.030296 5.760773 -3.990219 19.849567 -0.051200 -2.576800 16.131400 -88.491975 18.818529 -0.272575 19.425095 -26.460561 -4.220983 2.204262 2.595699 13.017174 -7.125000 0.000000 0.000000 78.710076 -12.432571 -7.136421 -8.511203 10.713890 -1.978107 -3.576506 0.854166 10.757673 7.125000 0.000000 0.000000 
-0.246493 17.284466 -0.708575 178.935758 -4.720781 -159.258708 -31.228513 -8.905855 -34.086397 1.871215 13.712946 36.232280 -1.693743 12.297847 -22.671002 0.061300 1.596900 4.393000 29.787044 -11.213200 -26.115766 -10.410338 -17.569438 54.097572 0.759588 -34.459966 38.157838 -1.125300 -6.737900 18.941300 1.188211 0.809365 -5.740053 0.699496 0.244711 2.971500 5.807585 -4.012930 19.844173 -0.032200 -2.573200 16.122700 -88.520545 18.750053 -0.181829 19.074577 -26.061293 -4.089572 2.196516 2.590996 13.452624 -7.125000 0.000000 0.000000 79.045808 -12.384524 -8.093592 -8.455149 10.619513 -1.933707 -3.539583 0.795179 10.789838 7.125000 0.000000 0.000000 
-0.245964 17.286795 -0.710692 178.979649 -4.578322 -159.306667 -31.169866 -8.936266 -34.055468 1.871358 13.716130 36.248528 -1.632098 12.199304 -22.892810 0.077200 1.792300 4.931900 29.776874 -11.197324 -26.080514 -10.429245 -17.573007 54.125950 0.916954 -34.789982 37.869179 -1.233900 -7.044400 19.847000 1.178470 0.823055 -5.765815 0.663048 0.247691 2.814628 5.899007 -3.990764 19.892060 0.025100 -2.565300 16.161400 -88.583041 18.897158 0.100060 18.874567 -25.835382 -4.025690 2.179426 2.643681 13.425117 -7.125000 0.000000 0.000000 79.342904 -12.362130 -8.806413 -8.431416 10.540149 -1.863083 -3.475570 0.646389 10.986967 7.125000 0.000000 0.000000 
-0.250303 17.290287 -0.709951 179.364772 -4.566181 -159.399788 -30.773255 -8.858140 -34.042252 1.878377 13.720765 36.276286 -1.606366 12.164327 -23.014151 0.087200 1.905000 5.243100 30.175831 -11.222354 -26.046025 -10.420343 -17.579702 54.120506 0.685405 -34.587189 38.413755 -1.089700 -6.634000 18.635500 1.189024 0.856231 -5.773516 0.466969 0.262792 2.725493 5.954110 -3.966981 19.886453 0.065000 -2.555200 16.122800 -88.608605 19.091531 0.409355 18.835504 -25.777897 -4.003315 2.122005 2.665792 13.303037 -7.125000 0.000000 0.000000 79.601361 -12.317739 -9.428603 -8.414892 10.489617 -1.798979 -3.409386 0.510839 11.100950 7.125000 0.000000 0.000000 
-0.265544 17.289335 -0.702966 179.541925 -4.694298 -159.438546 -30.624264 -8.976178 -33.984694 1.886734 13.735378 36.324878 -1.576734 12.165441 -23.235695 0.070700 1.714800 4.718200 30.305860 -11.595383 -26.190258 -10.416521 -17.577268 54.137850 0.279126 -33.993814 39.271095 -0.937800 -6.168400 17.273800 1.171012 0.890828 -5.772644 0.171008 0.277228 2.672297 5.975888 -3.986077 19.803639 0.083900 -2.551900 16.024000 -88.566752 19.167121 0.832064 18.802358 -25.725990 -3.984992 2.065554 2.698568 13.131730 -7.125000 0.000000 0.000000 79.850220 -12.326683 -9.409135 -8.471558 10.547318 -1.749455 -3.343992 0.386643 10.493702 7.125000 0.000000 0.000000 
-0.251997 17.290393 -0.696404 179.398821 -4.571216 -159.500872 -30.716791 -9.050420 -33.921387 1.890667 13.745070 36.358281 -1.520308 12.084223 -23.447030 0.055400 1.518500 4.176800 30.216315 -11.437489 -26.132035 -10.436330 -17.588199 54.174480 0.486099 -34.358837 38.858175 -1.045200 -6.501600 18.246900 1.169068 0.908699 -5.725991 0.379216 0.298722 2.813245 6.009051 -3.950703 19.771878 0.115800 -2.526200 16.068200 -88.514630 18.841527 1.167604 18.519636 -25.445182 -3.892022 1.981910 2.749120 12.896315 -7.125000 0.000000 0.000000 79.921650 -11.975658 -10.110696 -8.358450 10.391232 -1.686708 -3.277891 0.373466 10.742604 7.125000 0.000000 0.000000 
-0.248292 17.288276 -0.686561 179.397330 -4.598465 -159.532135 -30.738733 -8.922607 -33.978350 1.899205 13.752797 36.382406 -1.566629 12.166164 -23.306477 0.043700 1.349900 3.712100 30.254495 -11.469900 -25.986916 -10.462414 -17.581781 54.198214 1.259365 -35.443128 37.206468 -1.489500 -7.710100 21.836900 1.189768 0.851378 -5.674837 0.490731 0.281904 3.027514 6.058997 -3.826750 19.710758 0.169500 -2.459300 16.093000 -88.479997 18.465523 1.586315 18.240038 -25.160849 -3.791093 1.892711 2.767690 12.143196 -7.125000 0.000000 0.000000 79.828429 -11.517807 -10.970001 -8.115210 10.095561 -1.605885 -3.203080 0.370046 11.533138 7.125000 0.000000 0.000000 
